<?xml version="1.0" encoding="utf-8"?>
<!-- Generator: Adobe Illustrator 25.1.0, SVG Export Plug-In . SVG Version: 6.00 Build 0)  -->
<svg version="1.1" xmlns="http://www.w3.org/2000/svg" xmlns:xlink="http://www.w3.org/1999/xlink" x="0px" y="0px"
	 viewBox="0 0 1200 1200" style="enable-background:new 0 0 1200 1200;" xml:space="preserve">
<style type="text/css">
	.st0{fill:#FFFFFF;}
</style>
<g id="texture">
</g>
<g id="moon">
	<g>
		<path class="st0" d="M816.01,566.89c8.86-10.81,7.96-19.44,10.77-32.05c2.19-9.86,5.49-19.39,7.53-29.41
			c5,17.44-2.24,36.75-2.24,54.27c6.99-1.73,13.06-33.04,14.34-39.42c3.51-17.45,7.52-34.16,7.21-52.11
			c-0.28-16.19-1.47-35.41-5.45-51.18c-1.19-4.7-9.36-40.25-12.49-40.26c-0.58,8.04,2.41,15.76,2.7,23.73
			c-8.17-17.62-16-35.69-23.56-53.64c-1.94-4.6-27.7-44.52-29.43-42.75c7.29,14.55,10.89,26.4,14.7,41.89
			c1.15,4.68,13.97,26.83,10.55,30.52c-1.21-1.5-3.45-7.81-5.76-7.9c1.7,11.52,9.46,32.48,0.51,42.9c-3.43,3.99-9.61,6.23-15.1,5.73
			c-8.86-0.81-11.24-8.54-15.33-15.32c-6-9.96-11.76-19.53-23.6-22.9c-5.55-1.58-11.61-1.73-17.24-3.22
			c-0.18-0.05-0.39-0.11-0.6-0.17c6.11,4.88,11.22,9.19,15.77,13.31c4.67,4.22,7.92,8.83,10.53,12.54c1.2,1.71,2.34,3.33,3.19,4.28
			c7.02,7.85,12.96,19.99,15.16,30.94c1.03,5.15,1.68,10.07,2.3,14.82c0.43,3.28,0.84,6.38,1.35,9.35
			c0.04,0.2,3.09,25.83-3.33,37.51l-5.45,9.92c-0.03,8.78,0.81,17.23,2.53,25.29c1.04,4.9,3.5,9.93,6.35,15.75
			c0.96,1.96,1.92,3.93,2.85,5.93l0.25,0.54c2.31,4.98,4.53,23.9,7.4,32.82c2.14,6.65,5.86,7.89,9.26,5.7l1.21-1.59
			c0.13-0.61,0.26-1.22,0.39-1.84C805.84,578.68,808.32,576.27,816.01,566.89z M827.84,466.74c-8.89,2.58-11.01-13.04-6.18-17.37
			C822.35,453.05,828.97,466.41,827.84,466.74z M826.67,432.62c7.64,1.49,13.25,10.79,12.5,18.25c-8.27-5.27-9.26-11.94-19.57-13.42
			c-1.03,1.1-4.79,6.35-6.98,5.56C808.56,441.54,822.4,431.79,826.67,432.62z M797.62,564.62c-10.35-6.78,4.96-17.18,13.91-15.91
			c0.3-0.04,0.89,0.07,1.95,0.5c-0.95,4.98-5.79,3.09-9.06,5.42C800.81,557.22,800.78,561.66,797.62,564.62z"/>
		<path class="st0" d="M486.97,363.09c-8.33,6.3-12.85,2.7-22.78,3.65c-11.29,1.07-15.09,6.54-24.25,10.84
			c-20.59,9.67-30.14-16.92-26.87-33.12c2.05-10.13,11.16-20.37,16.84-28.54c6.04-8.68,16.44-15.67,21.33-24.71
			c-3.25,0.24-4.92,3.74-8.44,3.04c3.01-3.79,35.69-31.99,35.15-33.3c-13.66,6.36-24.01,15.34-35.34,24.89
			c-6.28,5.29-11.9,9.19-17.43,15.47c-1.74,1.97-8.31,12.38-11.09,11.73c0.75-1.75,7.91-14.48,7.02-15.63
			c-24.23,26.83-42.86,56.66-40.62,94.17c2.01-3.46,9.21-38.12,25.45-52.84c-3.1,9.09-5.6,18.12-7.02,27.62
			c-1.15,7.69-1.05,18.14-4.87,25.08c-4.39,7.96-9.03,10.02-10.29,19.99c-0.93,7.39,0.51,17.2-4.57,23.24
			c-5.51-7.32-1.83-47.27-5.92-48.41c-4.04,11.17-3.47,24.01-6.52,35.64c-4.47,16.98-2.16,30.34,1.56,47.1
			c3.68,16.58,3.99,33.49,8.08,50.06c1.27,5.16,14.66,27.34,13.22,30.51c-15.98-10.73-15.49-30.3-26.46-43.84
			c2.17,19.5,6.65,40.39,14.82,58.29c1.68,3.67,3.47,10.87,6.43,13.8c2.89,2.86,9.78,3.39,13.57,5.61
			c6.34,3.72,9.91,9.02,13.18,14.89l2.26-9.28c0.82-3.37,1.49-6.9,2.21-10.65c1.5-7.85,3.2-16.75,6.66-25.74
			c5.58-14.48,14.14-27.28,21.01-37.56c3.28-4.91,6.7-9.4,10-13.75c5.13-6.74,9.97-13.1,13.15-19.63c0.98-2.02,1.91-4.52,2.89-7.18
			c0.72-1.96,1.47-3.99,2.35-6.14c0.52-1.28,1.02-2.58,1.53-3.88c0.32-0.82,0.63-1.63,0.95-2.44c0.06-0.25,0.11-0.51,0.17-0.78
			c0.81-3.72,2.17-9.95,6.85-15.32l3.14-3.6c0.01-0.06,0.02-0.12,0.03-0.18c1.53-9.33,3.4-18.97,5.57-28.76
			c-4.18-6.2-9.16-8.51-17.12-6.56c-6.38,1.57-10.35,9.6-15.92,10.41c-1.4,3.81,0.34-5.81,0.03-4.81
			c1.69-6.57,4.44-9.07,10.62-11.55c7.21-2.9,21.86-2.25,23.89,5.94c0.19-0.81,0.36-1.61,0.56-2.42l0.96-4.01
			c4.26-17.87,8.66-36.29,14.24-54.72c-0.19,0.11-0.37,0.21-0.56,0.32C498.61,350.37,494.15,357.66,486.97,363.09z M399.67,391.98
			c7.77,6.3,5.31,28.39-7.16,27.01C394.5,409.25,400.51,402.46,399.67,391.98z M406.34,517.76c-0.02-0.12-0.02-0.22-0.01-0.3
			c-0.23-4.11,7.65-3.12,8.74-7.16c0.94-3.49-3.62-9.85-5.53-12.51c-7.73-10.77-14.8-12.02-24.15-2.82
			c-1.55-6.9,6.62-15.79,13.16-15.83c5.86-0.03,13.12,6.38,16.48,10.63C424.15,501.33,423.51,518.3,406.34,517.76z M485.11,417.69
			c0.17-0.13,0.32-0.13,0.45,0.08c-1.2,2.66-1.64,3.18-1.68,2.84c-3.67,4.91-9.59,5.75-15.3,2.39
			C470.98,423.07,482.66,417.9,485.11,417.69z"/>
		<path class="st0" d="M389.57,587.61c0.09,0.77,0.17,1.14,0.23,1.26c1.85,7.97,12.4,17.7,16.54,24.39c0.28,0.45,0.57,0.9,0.86,1.35
			l2.79-11.49C403.13,597.96,398.02,584.65,389.57,587.61z"/>
		<path class="st0" d="M399.46,621.55c-48.88-64.35-65.72-152.23-43.26-229.96c24.7-85.48,95.9-156.27,182.24-177.48
			c0.56-0.13,1.13-0.26,1.69-0.4c16.91-3.88,34.2-5.67,51.44-7.42c16.46-1.67,32.01-0.61,48.5,1.03c12.92,1.29,25.71,3.8,38.16,7.5
			c12.34,3.67,22.32,10.36,33.86,15.89c13.03,6.24,26.37,11.91,38.77,19.37c16.44,9.88,29.58,23.59,42.12,37.92
			c15.76,18,31.95,36.07,42.58,58.16c11.85,24.65,20.28,50.73,24.49,77.79c2.49,16.04,3.54,32.31,3.05,48.54
			c-1.38,46.25-15.2,92-39.18,131.55c0.79,6.02,1.09,13.11,0.5,21.37l0.15,7.97c25.75-39.19,42.2-84.49,47.39-131.11
			c1.47-13.25,2.01-26.37,1.66-39.32c-2.17-79.35-37.83-152.17-96.75-207.89c-15.49-14.65-38.25-25.82-57.39-34.98
			c-30.97-14.82-61.34-22.6-95.46-23.61c-45.7-1.35-100.21,1.09-140.24,25.77c-5.78,3.56-11.83,6.95-17.68,10.23
			c-76.66,42.96-124.9,128.64-131.22,215.3c-4.93,67.61,15.63,136.78,56.68,190.73c1.09,1.43,2.23,2.87,3.48,4.18l-1.8-23.59
			L399.46,621.55z"/>
		<path class="st0" d="M710.5,244.15c-16.05-10.64-33.96-15.08-52.55-19.2c-17.34-3.84-34.43-9.04-52.42-6.57
			c-10.48,1.44-20.9,3.71-31.38,5.26c-6.19,0.92-20.09,1.26-24.81,5.99c3.7-2.1,37.71-4.05,41.46-4.33
			c15.77-1.18,34.43-2.57,49.57,2.85c-8.58,2.08-20.04-0.44-29.11,0.47c-8.78,0.88-18.19,1.82-26.58,4.77
			c13.3,2.2,28.9,0.18,42.52,1.18c16.26,1.19,31.05,1.62,46.75,6c15.03,4.2,28.46,11.09,43.03,15.61
			c7.15,2.22,14.95,5.88,21.87,8.94c4.74,2.09,11.18,8.97,15.91,9.53C754.13,262.47,719.45,250.09,710.5,244.15z"/>
		<path class="st0" d="M494.93,293.43c2.21-4.18,4.36-8.21,6.6-12.22c2.26-4.06-1.77-8.72-6.1-7.05
			c-14.97,5.76-35.24,15.2-27.98,28.03C474.09,313.93,491.5,299.93,494.93,293.43z"/>
		<path class="st0" d="M568.61,245.08c-12.67,0.73-34.87,3.28-44.25,13.16c13.82,0,28.62-3.84,42.75-4.63
			c15.84-0.88,30.13-0.17,45.39-5.47C597.66,246.01,583.66,244.21,568.61,245.08z"/>
		<path class="st0" d="M652.65,316.87c6.57,8.57,9.91,10.34,20.25,12.83c5.39,1.29,13.87,8.08,18.02,1.27
			C701.4,313.79,659.21,316.25,652.65,316.87z"/>
		<path class="st0" d="M747.19,312.81c-2.71,3.69-1.46,11.28-0.33,15.3c2.31,8.18,9.55,15.6,18.72,15.79
			c24.45,0.51,2.48-34.46-10.01-34.46C755.58,307.76,747.85,311.91,747.19,312.81z"/>
		<path class="st0" d="M679.75,274.58c-1.62-0.59-37.61-10.41-37.64-6.23c13.47,5.18,27.45,10.08,40.58,16
			c5.31,2.39,11.05,5.61,15.51,9.33c5.05,4.21,8.33,10.9,15.36,12.2C705.73,290.26,696.4,280.64,679.75,274.58z"/>
		<path class="st0" d="M509.05,278.61c-6.58,6.13-6.28,19.01-14.17,25.47c-4.92,4.03-12.02,7.59-18.45,8.28
			c-3.22,0.34-9.85-1.84-12.41,0.44c9.71,5.26,28.28,5.03,37.11-1.21c13.01-9.2,9.1-20.08,8.68-33.65
			C509.47,278.19,509.22,278.41,509.05,278.61z"/>
		<path class="st0" d="M762.99,351.87c-5.96-1.38-11.93-6.22-18.23-9.23c0.9,0.21,0.64-0.06-3.52-1.45
			c3.04,4.38,8.1,8.12,11.61,12.11c3.14,3.58,4.67,6.58,9.65,7.95c10.83,2.99,24.74-4.45,18.56-17.16
			C774.78,348.62,772.04,353.96,762.99,351.87z"/>
		<path class="st0" d="M719.2,266.08c-5.49-3.33-11.86-2.14-17.63-0.11c-1.66,0.59-2.28,2.62-1.25,4.05
			c1.03,1.43,2.19,2.73,3.66,3.94c2.58,2.12,5.64,3.7,8.93,4.36c4.22,1.27,9.67,2.35,13.74,0.04
			C733.61,274.39,722.35,268,719.2,266.08z"/>
		<path class="st0" d="M421.05,358.38c0.08,0.17,0.37,0.49,1.02,1.04c6.13-0.87,6.58-16.23,8.03-21.09
			c2.23-7.51,7.28-14.21,8.48-21.92C432.01,322.83,412.75,348.45,421.05,358.38z"/>
		<path class="st0" d="M470.83,339.17c-4.56,0.07-9.93,2.21-12.15,4.48c-4.54,4.65-3.17,10.36,3.52,10.45
			c5.11,0.07,11.48-3.57,14.36-7.73c1.18-1.7,1.83-3.64,0.23-5.29C475.42,339.67,473.24,339.13,470.83,339.17z"/>
		<path class="st0" d="M586.14,271.29c-2.54-1.74-6.99-1.1-10.39,0.39c-2.22,0.97-1.91,4.26,0.46,4.76
			C582.55,277.75,591.45,274.92,586.14,271.29z"/>
		<path class="st0" d="M327.31,389.6c6.7-27.87,17.83-54.46,32.58-79.03c8.46-14.1,17.39-28.33,27.65-41.17
			c0.27-0.34-0.15-0.79-0.48-0.48c-10.7,9.98-20.86,20.23-29.2,32.32c-8.44,12.25-15.75,25.2-21.94,38.74
			c-12.38,27.06-20.36,55.83-23.33,85.44c-0.84,8.34-1.39,16.6-0.71,24.97c0.66,8.13,2.52,16.29,3.99,24.31
			c0.07,0.39,0.66,0.28,0.67-0.09c0.3-14.32,2.54-28.68,3.77-42.96C321.53,417.48,323.98,403.43,327.31,389.6z"/>
		<path class="st0" d="M350.1,281.55c3.79-4.76,8.23-8.91,11.95-13.66c3.76-4.81,7.66-9.52,11.69-14.1
			c8.07-9.18,16.68-17.85,25.73-26.07c9.43-8.57,18.61-17,28.89-24.54c9.86-7.23,20.14-13.86,30.76-19.93
			c0.23-0.13,0.03-0.47-0.21-0.35c-11.27,5.94-22.24,12.47-32.7,19.75c-9.88,6.87-19.85,13.81-28.84,21.84
			c-9.3,8.31-18.05,17.28-26.26,26.66c-4.2,4.8-8.25,9.72-12.15,14.76c-3.57,4.61-6.27,10.28-9.28,15.31
			C349.52,281.48,349.9,281.8,350.1,281.55z"/>
		<path class="st0" d="M388.57,662.09c-10.79-12.94-22.69-25.45-31.61-39.78c-0.09-0.15-0.31-0.02-0.24,0.14
			c7.28,15.78,13.8,31.44,24.36,45.42c4.78,6.33,10.07,12.33,15.48,18.13c1.36-3.27,2.85-6.43,4.42-9.49
			C396.71,671.81,392.64,666.97,388.57,662.09z"/>
		<path class="st0" d="M898.11,405.91c-3.38-17.83-8.09-35.21-15.02-52c-1.54-3.72-3.66-7.01-5.35-10.67
			c-1.9-4.11-3.9-8.18-6.01-12.19c-3.8-7.23-7.75-14.58-12.7-21.09c-11.86-15.6-23.62-30.62-38.3-43.73
			c-0.06-0.06-0.16,0.03-0.1,0.09c11.25,12.32,21.65,25.48,30.62,39.54c4.26,6.68,8,13.92,11.74,20.91
			c3.85,7.19,7.93,14.7,10.64,22.42c11.53,32.8,20.3,67.57,21.45,102.51c0.15,4.64-0.24,9.37,0.22,13.98
			c0.52,5.14,0.54,9.81-0.05,14.95c-1.18,10.18-2.62,20.24-6.48,29.8c-0.12,0.29,0.35,0.49,0.49,0.22
			c3.97-7.53,7.56-15.28,9.93-23.48c1.16-4.02,1.77-8.18,2.39-12.32c0.69-4.59,2.15-8.91,2.28-13.57
			C904.4,442.79,901.54,424.05,898.11,405.91z"/>
		<path class="st0" d="M360.59,663.08c-4.9-5.78-9-12.02-12.84-18.52c-3.61-6.11-7.53-12.04-11.04-18.22
			c-7.04-12.41-14.3-26.17-17.94-39.98c-0.16-0.59-1.04-0.39-0.93,0.21c1.45,7.88,2.34,15.69,4.88,23.33
			c2.24,6.72,4.88,13.3,8.18,19.58c3.35,6.37,6.94,12.35,11.76,17.71c5.32,5.92,11.33,11.24,17.33,16.45
			C360.39,663.98,360.94,663.49,360.59,663.08z"/>
		<path class="st0" d="M686.24,170.57c9.86,1.38,19.37,4.07,28.74,7.43c8.88,3.18,17.83,6.37,26.45,10.22
			c8.68,3.88,17.2,8.31,25.33,13.24c8.32,5.06,16.98,9.83,24.55,15.97c0.42,0.34,0.87-0.3,0.5-0.65
			c-7.46-6.92-14.39-13.87-22.91-19.5c-8.11-5.35-16.57-10-25.46-13.93c-8.63-3.82-17.4-7.05-26.64-9.01
			c-10.05-2.13-20.28-3.24-30.48-4.32C685.96,169.99,685.89,170.52,686.24,170.57z"/>
		<path class="st0" d="M884.69,577.34c-5.24,14.47-12.3,28.02-19.22,41.73c-6.82,13.52-14.5,26.63-23.01,39.17
			c-8.36,12.32-18.24,23.22-28.11,34.33c-0.91,1.03-1.84,2.05-2.77,3.06c1.21,1.54,2.57,3.26,3.92,5.19
			c0.51,0.74,0.99,1.48,1.44,2.22c1.34-1.57,2.67-3.16,3.99-4.75c9.62-11.64,17.64-24.52,25.8-37.21
			c8.3-12.91,15.77-26.36,22.34-40.23c6.6-13.94,11.13-28.78,15.75-43.47C884.84,577.31,884.71,577.27,884.69,577.34z"/>
	</g>
</g>
<g id="wolf">
	<g>
		<path class="st0" d="M632.15,710.31c0.52-5.62,1.65-13.35-0.46-18.75c-1.11,11.06-3.13,15.17-3.74,18.93
			c-1.12,6.9-2.41,13.79-3.33,20.69c-1.66,12.44-3.12,25.85,5.64,36.28c2.03-6.43,0.93-13.69,0.59-20.29
			c-0.34-6.47-0.06-12.6,0.46-18.98C631.78,722.29,631.6,716.29,632.15,710.31z"/>
		<path class="st0" d="M679.37,475.91c-1.27,5.28-2.18,10.67-3.38,15.96c-1.3,5.68-2.5,11.5-2.97,17.33
			c-0.36,4.53-1.37,14.74,0.77,18.82c0.19,0,0.26-0.06,0.26-0.14c-0.69-6.41,4.32-24.55,5.21-27.94c2.14,2.36,1.55,5.17,3.26,7.76
			c0.57-8.2,1.57-16.22,2.05-24.48c0.48-8.32,0.88-17.1,0.88-25.47C682.17,460.38,680.37,471.78,679.37,475.91z"/>
		<path class="st0" d="M709.86,855.71c-3.55,4.71-7.27,9.15-10.49,14.1c-3.55,5.45-6.26,10.3-7.57,16.72
			c-0.88,4.32-4.9,15.52-2.3,19.41c3.67-11.16,7.98-21.27,14.11-31.3c6.62-10.82,14.07-22.32,17.91-34.5
			C716.72,843.19,713.27,851.19,709.86,855.71z"/>
		<path class="st0" d="M712.03,416.16c-1.13-0.25-5.95-3.8-6.63-2.93c3.31,4.23,5.48,8.28,8.22,12.9c2.79,4.69,7.65,7.12,10.4,11.6
			c0.05-0.09,0.09-0.18,0.11-0.26c1.36-3-1.55-7.39-1.88-10.22c-0.35-2.99,0.06-5.56-1.02-8.56c-2.41-6.71-9.65-14.12-17.13-14.84
			C706.84,406.41,710,412.21,712.03,416.16z"/>
		<path class="st0" d="M551.55,888.35c-1.7-2.88-5.49-10.79-8.81-15.22c-1.03,2.23,5.89,15.61,6.75,18.14
			c1.77,5.26,3.21,10.61,4.78,15.95c1.95,6.67,3.36,13.43,5.63,19.92c0.96,2.73,1.94,12.72,4.51,13.8
			c-0.04-11.65-1.41-25.35-5.72-36.16C556.44,899.15,554.62,893.58,551.55,888.35z"/>
		<path class="st0" d="M608.8,756.22c-4.02,7.48-4.88,20.4-4.91,28.9c-0.01,2.09,4.08,26.08,6.94,25.38
			c0-10.04-0.83-19.92-1.76-29.91C608.36,772.97,610.71,763.39,608.8,756.22z"/>
		<path class="st0" d="M589.38,417.95c0.8,5.05,0.72,9.62,2.2,14.62c2.8,9.49,5.52,20.52,11.29,28.69
			c1.57-1.94-2.22-10.04-2.8-12.29c-1.31-5.07-2.44-10.19-3.76-15.25c-2-7.64-1.99-23.38-8.08-29.03
			C586.56,408.51,588.78,414.13,589.38,417.95z"/>
		<path class="st0" d="M549.53,355.23c-5.97,4.45-5.24,18.5-5.34,25c-0.03,2.05,1.6,18.52,3.69,21.37
			c-0.69-6.82-0.03-16.55,0.4-22.84c0.27-4.01,0.42-7.88,1.08-11.84c0.61-3.69,2.73-8.45,0.47-11.91
			C549.7,355.09,549.61,355.16,549.53,355.23z"/>
		<path class="st0" d="M596.69,405.15c0-0.01,0-0.01,0-0.02c0.01,0.02,0.01,0.03,0.02,0.05c0.05-0.01,0-0.14-0.03-0.19
			c-0.15-2.26,0.01-23.76-3.71-24.78c-3.88-1.06-3.19,9.22-2.74,11.25C591.33,396.55,595.17,400.57,596.69,405.15z"/>
		<path class="st0" d="M574.61,353.15c-0.73-3.4-3.84-3.41-6.29-1.67c-5.48,3.89-3.27,17.63,3.2,10.65
			C571.6,359.26,575.16,355.76,574.61,353.15z"/>
		<path class="st0" d="M566.67,395.07c-5.09,0.26,0.97,22.46,3.52,24.97C571.63,416.92,571.24,394.83,566.67,395.07z"/>
		<path class="st0" d="M577.09,369.75c-2.31,1.91-2.52,6.68-1.63,9.29c1.06,3.11,1.77,3.38,4.8,3.09
			C580.64,379.12,582.81,365,577.09,369.75z"/>
		<path class="st0" d="M576.51,393.03c-5.27-0.04,0.82,12.15,2.89,15.85c0.11,0.21,0.27,0.5,0.53,0.9
			C579.93,407.06,580.96,393.06,576.51,393.03z"/>
		<path class="st0" d="M568.41,386.16c2.76-3.92-2.2-7.52-4.49-9.55C562.26,380.08,563.57,393.05,568.41,386.16z"/>
		<path class="st0" d="M586.73,366.15c1.41-2.81,1.98-6.27-0.63-8.56c-0.11,0.08-0.18,0.15-0.24,0.22
			C583.92,359.64,583.8,365.29,586.73,366.15z"/>
		<path class="st0" d="M501.82,714.01c-8.84,7-16.39,15.29-26.42,20.84c-8.79,4.86-17.63,10.11-26.21,15.24
			c0.42,0.05,0.76,0.08,1.05,0.09c0.03,0,0.07,0,0.1,0c0.06,0,0.12,0.01,0.17,0.01c10.95,0.56,22.01-6.97,30.94-12.21
			C489.33,733.36,499.74,723.38,501.82,714.01z"/>
		<path class="st0" d="M533.96,641.54c1.67-7.31,2.66-15.26,2.2-22.79c-2.93-0.18-6.63,17.77-7.41,20.64
			c-1.05,3.86-1.8,6.89-1.99,10.97c-0.18,3.83-1.6,8.11-1.35,11.84C529.43,656.55,532.41,648.31,533.96,641.54z"/>
		<path class="st0" d="M618.83,663.56c6.1,6.75,12.47,14.81,19.59,20.74c-1.56-9.41-9.28-18.12-14.23-25.98
			c-4.5-7.15-7.29-15.3-12.06-22.1c-2.21-3.14-3.41-5.95-3.66-1.72c-0.25,4.16,1.16,10.76,1.99,14.9c1.61,7.97,0.36,22.86,6.26,29
			C616.71,672.52,615.61,667.61,618.83,663.56z"/>
		<path class="st0" d="M686.41,428.18c2.99-4.32,5.73-8.87,7.68-13.77c0.68-1.72,1.26-3.48,1.7-5.27c0.18-0.75,0.34-1.5,0.46-2.26
			c0.2-1.19,0.25-2.37,0.35-3.56c0.08-0.91,0.52-2.74,0.72-3.83c-0.77,0.78-1.5,1.52-2.16,2.09c-5.16,4.48-8.02,9.71-10.69,15.98
			c-2.79,6.54-6.02,12.87-8.8,19.4c-0.76,1.79-7.74,13.37-7.27,13.96C675.83,446.14,681.5,435.28,686.41,428.18z"/>
		<path class="st0" d="M557.12,468.76c-1.09-2.36-5.19-9.65-7.42-10.67c-1.03,2.39,2.01,9.34,2.53,12.08
			c-2.08-1.22-3.66-4.51-5.51-6.2c-2.36-2.16-4.85-4.12-7.17-6.34c-0.39,3.12,2.59,8.39,3.69,11.35c1.47,3.99,3.7,7.65,4.92,11.71
			c1.17,3.9,1.26,6.02,1.96,10.03c0.33,1.88,1.18,8.7,0.52,15.56c0.87-0.94,2.29-8.76,2.97-9.92c0.03,7.66-0.04,15.34-1.08,22.95
			c3.31-1.9,5.41-10.77,6.32-14.46c1.58-6.41,2.51-12.45,2.12-19.08C560.63,480.15,559.51,473.93,557.12,468.76z"/>
		<path class="st0" d="M629.93,866.97c-0.59-5.81-1.28-11.26-2.86-16.81c-1.6-5.62-2.63-14.32-6.86-18.74
			c-0.08-0.1-0.18-0.21-0.31-0.33c1.16,12.77,3.51,25.66,3.97,38.5c0.25,6.85,0.93,13.75,1.13,20.57
			c0.21,6.99-1.74,13.49-0.52,20.53C627.02,896.24,631.43,881.72,629.93,866.97z"/>
		<path class="st0" d="M629.08,840.38c2.68,9.54,4.92,18.75,5.82,28.65c0.36,3.97,0.66,8.04,0.64,12.03
			c-0.02,3.86-1.71,9.1-0.26,12.73c0.14-0.38,7.68-17.12,8.61-24.71c0.59-4.85,0.76-9.56,0.46-14.44c-0.19-3.1-2.32-9.68,0.14-12.09
			c2.76,1.17,3.24,21.76,3.94,25.4c0.65,3.37,0.56,6.58,0.56,9.96c0,2.4-1.49,10.48,0.1,12.18c0.87-6.41,3.51-12.67,5.36-18.83
			c2.12-7.08,1.18-13.91,0.67-21.2c-0.59-8.45-2.12-16.74-4.3-24.92c-0.54-2.04-4.06-15.25-1.69-16c3.75,3.35,5.04,12.16,9.76,14.14
			c-3.68-6.29-3.41-16.41-5.32-23.62c-2.1-7.93-4.57-15.82-6.65-23.72c-1.96-7.43-2.17-15.98-3.02-23.57
			c-0.48-4.26-0.8-8.1-0.69-12.38c0.05-2,1.66-8.55,0.04-10.05c-3.24,9.98-5.42,20.05-6.29,30.48c-0.44,5.32-0.39,10.83,0.71,16.1
			c0.67,3.22,3.65,8.21,1.4,11.32c-1.52-1.82-5.15-8.39-7.71-13.7c-1.24-2.58,0.43,11.52,0.66,13.77
			c0.58,5.83,5.54,14.87,4.02,20.37c-4.08-6.15-7.22-14.57-10.07-21.43c-1.2-2.89-4.91-22.8-6.43-23.29
			c-2.1,7.84,1.73,17.96,3.78,25.53c2.59,9.56,4.23,19.47,6.56,29.11c-2.77-1.26-5.05-8.43-6.38-11.11
			c-2.08-4.19-3.04-10.59-6.82-13.56c2.78,7.75,2.88,16.42,5.62,23.84C625.07,824.86,626.89,832.58,629.08,840.38z"/>
		<path class="st0" d="M610.46,617.08c-1.8-7.81-5.45-15.06-6.29-23.15c-0.65-6.3,0.8-13.3,1.18-19.64
			c0.94-15.48-1.3-30.17-1.3-45.53c1.31,2,4.68,23.48,8.16,22.33c0.2-3.5,1.63-6.26,2.05-9.67c0.5-4.09-0.11-9.19-0.73-13.22
			c-1.28-8.33-3.46-16.25-5.71-24.34c-2.3-8.28-5.53-14.55-11.12-21.05c-1.94-2.25-10.95-19.01-13.31-18.08
			c8.86,16.03,13.42,32.64,17.92,50.31c-1.84,0.96-5.54-19.43-9.96-19.43c4.95,12.81,4.8,23.53,5.21,36.82
			c0.34,11.01,2.32,22.3,1.07,33.33c-4.47-3.98-4.9-12.07-6.26-17.52c-1.52-6.09-2.03-14.82-5.49-20.14
			c-1.82,2.18-0.96,7.92-1.28,10.73c-0.54,4.79-0.5,9.55-0.42,14.38c0.14,8.41,1.89,15.9,4.74,23.79
			c2.59,7.15,5.78,13.68,9.37,20.36C601.69,603.67,605.09,612.25,610.46,617.08z M601.79,517.21
			C602.14,517.39,601.62,517.64,601.79,517.21L601.79,517.21z"/>
		<path class="st0" d="M685.52,862.45c0.12-11.86,0.6-23.95,2.64-35.57c1.46-8.29,2.35-23.88-3.19-31.14
			c0.49,6.06-0.63,13.19-0.77,15.51c-0.26,4.41-0.52,10.59-1.93,14.77c-2.15-5.03-0.01-13.17-0.33-18.62
			c-0.27-4.69-0.91-9.1-2.28-13.59c-1.4-4.59-2.63-8.93-4.69-13.28c-1.44-3.04-3.77-11.47-7.12-12.93c0.73,4.38,3.2,10.9,1.21,15.2
			c-5.85-9.51-8.24-22.66-15.37-31.42c3.16,22.3,14.97,42.05,16.89,64.61c0.98,11.56-2.33,22.82,0.08,34.59
			c1.57,7.69,8.3,21.25,15.34,25.31c-1.31-2.56-11.56-17.16-6.74-28.67C679.37,848.24,684.44,862.47,685.52,862.45z"/>
		<path class="st0" d="M642.22,902.25c-0.02,0-0.04,0.01-0.04,0.02c-0.69,0.46,1.18,11.77,1.28,13.34c0.36,5.43-0.3,9.91-1.53,15.16
			c-2.93,12.42-3.71,25.45-8.17,37.53c-2.28-2.5,0.35-13.5-0.03-17.12c-0.4-3.85-0.7-12.57-3.02-15.58
			c-2.33,16.45-6.54,32.79-8.68,49.3c-1.62,12.46-6.1,31.51-0.35,43.37c1.73-10.7,3.25-20.34,7.8-30.38
			c4.24-9.34,10.48-17.06,13.01-27.13C648,948.74,650.56,924.04,642.22,902.25z"/>
		<path class="st0" d="M532.22,501.27c-4.56-6.49-0.86-17.81,1.5-31.18c-4.69,3.18-8.73,16.6-10.72,21.59
			c-2.29,5.75-5.45,11.07-7.92,16.71c-5.63,12.84-1.6,25.96,0.82,39.02c2.29-0.53,1.3-14.45,2.07-16.78
			c2.41,4.03,3.9,9.81,4.35,14.38c0.18,1.84-1.45,14.64-0.83,14.7c2.16-7.27,6.87-13.33,8.66-20.58c1.59-6.47,3.26-11.87,5.73-18.04
			c2.66-6.61,3.63-15.06,2.97-22.13C537.93,489,534.33,496.01,532.22,501.27z"/>
		<path class="st0" d="M670.34,919.08c-0.36-9.33-0.67-18.22-2.13-27.4c-1.22-7.67,0.69-17.35-1.83-24.73
			c-1.2,9.11-2.41,18.13-4.33,27c-2.32,10.74-1.1,22.22-2.03,33.1c-0.97,11.34-1.33,23.06-4.35,33.99c-0.64,2.33-9,23.36-8.38,23.64
			c9.59-12.53,15.74-26.61,23.14-40.41c4.18-7.79,6.58-15.93,8.13-24.69c1.24-7.03,3.55-20.79-0.16-27.25
			C677.93,897.62,674.91,911.77,670.34,919.08z"/>
		<path class="st0" d="M456.78,712.94c1.09-2.7,2.54-9.24,5.25-10.77c-1.48,8.14-5.21,16.03-5.21,24.45
			c2.02-0.8,4.34-8.38,5.1-10.04c1.64-3.56,3-7.19,4.9-10.62c4.06-7.35,6.62-16.39,11.82-23.05c0,6.37-2.53,13.32-3.34,19.73
			c-0.77,6.1-1.71,11.84-3.18,17.84c2.1-2.03,3.46-6.92,4.74-9.58c1.43-2.98,3.06-5.88,4.71-8.77c1.19-2.09,7.13-18.86,9.3-18.86
			c-0.17,2.07-0.43,4.3-0.19,6.4c2.74-1.12,8.54-17.06,10.73-16.2c-1.98,10.31-4.88,20.36-8.4,30.22
			c-0.88,2.47-11.03,20.39-12.86,21.52c4.69-0.68,11.81-9.39,14.86-12.48c4.57-4.63,10.03-8.3,13.88-13.59
			c2.25-3.09,17.69-33.55,12.64-34.74c-0.68-0.16-3.71,5.32-4.95,6c-0.57,1.79,0.54-1.95,0.63-2.24c1.01-3.29,1.79-6.44,2.56-9.78
			c0.98-4.27,3.85-12.68,2.33-16.91c-0.5,4.35-5.43,11.14-4.19,1.89c0.71-5.32,3.45-9.22,4.7-14.22
			c-3.17,0.54-22.36,13.75-22.17,13.93c-0.02-1.73,1.19-3.2,1.29-4.93c-7.97,6.85-12.92,14.93-18.93,23.43
			c-6.02,8.51-14.26,13.72-19.88,22.59c-5.76,9.07-12.48,17.59-17.01,27.26c-2.09,4.47-4.87,8.69-7.05,13.13
			c-1.46,2.98-5.4,9.08-4.47,12.43c2.76-4.85,5.74-9.15,9.12-13.57c0.82,3.59-5.96,28.28-3.27,28.94
			c4.09-8.62,7.88-17.87,11.65-26.63C453.67,721.55,455.08,717.15,456.78,712.94z"/>
		<path class="st0" d="M819.34,790.46c-0.54-11.96-2.4-21.48-7.76-32.26c-2.26-4.54-4.38-9.12-6.67-13.66
			c-2.23-4.41-6.79-10.59-7.21-15.53c0.97,0.85,8.14,7.82,8.49,7.53c-3.7-7.53-3.38-15.96-8.48-23.28
			c-2.41-3.47-5.33-6.61-7.62-10.18c-2.26-3.51-2.41-6.71-3.09-10.82c-0.77-4.63-1.64-8.6-3.11-13.01
			c-1.51-4.55-2.27-5.98,2.44-8.24c3.03-1.45,17.31,3.38,17.14-5.68c-3.55,3.74-12.68-2.61-15.76-4.46
			c-5.03-3.03-9.07-4.05-12.82-8.67c2-1.82,8.78-1.77,11.71-3.04c4.09-1.76,7.4-4.68,9.99-8.3c6.18-8.64,7.13-18.27,5.93-28.45
			c-0.15,0-2.66,5.32-3.23,6.15c-1.93,2.79-5.02,6.88-7.99,8.65c-5.93,3.53-13.28-1.16-17.31-5.65c-5.05-5.63-6.23-15.09-7.84-22.26
			c-1.74-7.71-3.33-15.51-4.48-23.28c2.41,1.33,5.63,6.31,17.02,7.82c-6.91-4.59-11.76-15.46-13.61-19.45
			c-4.05-8.69-8.71-16.74-10.75-26.32c-4.32-20.3-3.72-41.43,0.2-61.8c2.03,1.26,3.64,11.76,4.92,11.62
			c1.45-2.62,1.72-18.94,0.96-23.42c-1.33-7.85-1.99-15.78-3.54-23.55c-1.42-7.08-5.47-15.62-10.04-20.73
			c-4.12-4.6-7.22-10.78-12.11-15.21c-6.23-5.63-13.15-11.24-19.77-16.4c-5.95-4.64-11.88-9.66-19.97-7.94
			c-8.14,1.73-14.18,11.39-18.98,17.56c-5.09,6.55-10.43,12.75-15.82,19.06c-9.56-10.8-18.37-21.71-26.56-33.61
			c-6.56-9.52-15.9-26.44-18.52-30.09c-2.24-3.51-4.86-9.06-7.85-12.07c-3.04-3.06-7.1-5.11-10.87-7.15
			c-9.08-4.9-19.22-8.37-28.69-12.56c-7.24-3.2-18.34-8.43-25.56-2.73c-6.43,5.07-9.82,18.91-12.25,26.52
			c-6.77,21.21-11.67,42.25-16.83,63.88c-2.86,12-5.34,24.06-7.34,36.24c-1.45,8.84-1.95,21.8-7.81,29.1
			c-0.4-4.86,0.17-9.67-0.41-14.58c-1.61,1.86-1.95,6.65-2.89,9.03c-0.96,2.44-1.88,4.91-2.87,7.34c-2,4.89-3.51,9.87-5.82,14.61
			c-6.42,13.2-16.5,23.79-24.61,35.93c-6.99,10.47-14.26,21.5-18.81,33.31c-4.22,10.96-5.29,22.42-8.04,33.72
			c3.08-2.61,4.05-7.09,6.65-10.04c-1.77,13.99-3.02,28.12-5.41,42.05c-1.4,8.2-3.13,14.16-7.83,21.25c-1.54,2.33-3.17,4.8-6.2,5.17
			c-1.19,0.15-1.77,0.3-4.19-0.65c0.55,7.24,13.9,4.16,15.49,6.73c1.53,2.48-0.62,9.08-1.7,11.02c-1.45,2.61-3.88,4.85-5.55,7.35
			c-3.66,5.46-6.7,11.36-9.22,17.41c-2.04,4.9-3.38,10.38-7.14,14.26c3.82-0.65,7.06-4.66,9.82-7.33
			c-1.5,9.92-7.19,18.39-12.13,26.8c-5.58,9.49-8.19,19.16-12.75,29c3.39-0.86,4.71-5.7,7.9-7.47
			c-4.31,12.39-3.17,20.88,10.33,25.33c12.44,4.1,22.51,4.84,35.41,2.59c-6.05,15.62-12.4,30.71-12.37,47.89
			c0.02,8.47,1.81,17.47,4.17,25.58c1.13,3.87,4.1,14.95,7.78,16.8c-0.49-4.31-2.89-8.05-3.08-12.6c-0.14-3.22,0.21-6.44,0.25-9.68
			c0.09-6.63-2.35-18.78,0.3-24.62c2.65,19.22,6.21,36.38,15.6,53.55c4.74,8.66,9.3,17.59,14.63,25.91
			c1.84,2.87,16.08,18.32,15.02,20.54c-4.56-2.4-10.79-7.23-15.82-8.26c14.15,15.78,27.41,32.51,39.04,50.18
			c6.07,9.22,11.66,19.15,16.47,29.1c2.27,4.7,4.37,8.9,7.34,13.21c2.05,2.97,4.28,10.07,7.44,11.38c0.53-2.35-1.59-6.99-2.1-9.47
			c-0.68-3.35-1.26-6.71-1.83-10.08c-0.66-3.87-1.2-7.77-2.39-11.53c-0.58-1.82-3.18-5.56-2.18-7.52
			c4.09,7.04,7.39,13.65,12.08,20.23c4.12,5.78,7.06,13.19,9.67,19.79c3.31,8.38,6.82,16.77,9.72,25.29
			c1.18,3.47,2.17,6.89,3.28,10.37c0.1,0.3,2.3,7.21,2.31,7.22c2.85-3.26-3.75-34.26-3.16-34.38c5.93,11.94,8.85,25.4,12.68,38.09
			c1.79,5.91,3.15,11.91,4.76,17.87c1.02,3.76,3.55,16.22,6.88,18.1c0-5.82-1.68-12.09-2.17-17.96c-0.18-2.15-2.84-16.81-1.38-17.7
			c6.49,11.88,7.06,26.08,12.07,38.78c1.77,4.49,10.61,31.96,12.96,27.63c4.67-8.6,11.89-28.53,14.66-35.07
			c2.86-6.74,6.27-13.02,10.02-19.33c7.82-13.17,15.52-28.36,25.58-39.89c-2.01,9.97-6.44,19.44-7.4,29.64
			c-0.29,3.13-1.97,25.62,1.32,26.93c3.42-5.49,3.56-13.77,5.89-19.84c2.23-5.79,4.12-11.63,6.73-17.29
			c2.61-5.66,5.21-11.42,8.23-16.88c1.93-3.48,6.88-14.14,10.84-15.13c-0.25,1.84-4.39,16.86-2.37,17.3c3.23-2.7,6-11.02,8.31-14.93
			c3.02-5.11,5.3-10.56,8.22-15.75c6.79-12.09,16.44-21.78,23.09-34.01c2.8-5.14,5.96-10,8.46-15.26c1.14-2.4,2.07-5.77,3.83-7.83
			c2.62-3.07,1.96-2.32,5.41,0.03c4.81,3.27,9.57,4.14,15.31,2.84c3.62-0.82,13.5-3.45,15.06-7.14c-6.08-0.27-15.33,0.02-17.24-7.14
			c-1.7-6.36,2.71-13.89,6.02-19.05c7.23-11.27,13.81-21.71,18.88-34.16c2.9-7.12,3.18-14.68,4.34-22.19
			c1.1-7.13,0.51-15.61,3.47-22.15c2.86-6.31,6.32-12.02,8.81-18.56c1.92-5.06,3.18-10.33,5.06-15.38c1,4.09-0.29,8.89-0.44,13.02
			c-0.14,3.74,0.33,7.59-0.04,11.31c-0.66,6.58-3.12,13.02-4.38,19.48c-0.02,0.07-0.03,0.16-0.05,0.26
			c5.15,1.43,12.46-24.34,13.27-28.32C817.27,814.77,819.91,803,819.34,790.46z M767.14,662.5c0.95,4.52,1.41,9.14,2.58,13.68
			c1.06,4.11,4.71,9.71,4.48,14.05c0.02,0.05,0.01,0.23-0.06,0.66c-5.67-5.42-9.65-18.84-12.44-26.11
			c-2.24-5.82-3.86-11.83-5.68-17.77c-1.09-3.55-2.97-7.25-3.59-10.93C760.39,642.22,765.12,652.89,767.14,662.5z M746.62,604.48
			c0.54,2.19,1.73,4.81,1.94,7.14c-2.07-0.33-8.15-19.4-9.17-22.19c-2.73-7.44-4.52-15.13-5.07-23.03
			c-1.06-15.2,0.17-33.16,5.83-47.37c1.24,7.26-0.97,15.81-0.27,23.38c0.78,8.45,0.84,16.93,1.48,25.4
			c0.59,7.87,2.15,15.61,3.19,23.44C745.13,595.73,745.53,600.07,746.62,604.48z M723.19,632.44c0.71,3.52,2.74,7.86,3.52,11.67
			c-2.02-4.14-5.78-9.45-6.89-12.31c-3.05-7.85-4.35-16.4-4.3-24.81c0.04-7.85,1.16-16.11,2.8-23.78
			c1.67-7.76,1.67-14.75,2.27-22.57c2.95,1.91,1.99,12.73,1.9,15.54c-0.19,5.46-0.4,10.91-0.46,16.37
			c-0.1,9.58,1.54,22.44,8.59,29.63c-1.71-7.32-4.55-15.17-2.99-22.76c4.56,19.04,11.23,35.7,20.7,52.8
			c-2.67,0.83-11.45-12.93-13.16-15.28c-4.62-6.38-8.07-13.22-12.32-19.79C720.04,619.47,722.52,629.13,723.19,632.44z
			 M731.38,474.12c5.07,5.4,5.04,18.19,4.06,24.91c-1.05,7.15-2.94,14.03-3.04,21.26c-4.31-3.05-2.01-16.98-1.54-21.28
			C731.77,490.57,731.38,482.58,731.38,474.12z M452.11,763.42c-9.44-2.45-18.58-4.56-27.69-7.94c1.56,4.03,10.42,8.73,13.64,11.31
			c-3.86,0.95-8.67-1.69-12.45-2.67c-3.61-0.94-9.15-1.15-10.62-5.13c-1.49-4.05,3.11-9.99,4.57-13.49
			c1.96-4.71,3.7-9.47,5.34-14.29c3.47-10.19,7.85-21.18,13.9-30.16c4.99-7.39,13.07-16.42,17.32-24.25
			c-4.82,2.41-11.64,8.02-14.99,8.98c6.82-8.01,14.87-14.88,23.03-21.45c3.09-2.48,21.2-17.44,20.53-21.01
			c-7.52,4.43-10.47,5.05-12.22,5.51c-4.46,1.18-7.91,4.53-12.47,4.53c2.98-7.47,16.42-10.37,22.75-13.76
			c3.35-1.79,6.6-4.12,10.15-5.53c2.96-1.18,6.48-1.38,8.96-3.55c-2.61-0.69-5.18,0.08-7.81-0.3c2.11-3.28,6.04-5.95,9.44-7.66
			c-0.33,2.3-2.39,7.56,1.57,8.02c2.68,0.31,6.01-5,7.51-6.99c2.34-3.1,4.88-5.84,7.53-8.77c1.45-1.6,5.4-7.63,7.5-7.63
			c1.8,2.06-1.28,13.44-1.69,16.2c4.44-3.15,6.91-8.97,9.17-13.75c2.82-5.97,3.77-14.49,7.6-19.73c2.31,3.95,2.38,10.55,3.76,14.97
			c0.81,2.59,6.49,13.93,5.37,15.66c-2.23-3.39-4.92-6.64-6.95-10.13c-0.93-1.6-2.92-7.54-4.32-7.98
			c-0.66,4.44-0.91,7.06,0.12,11.34c0.69,2.86,0.51,4.43,0.15,7.41c-0.73,5.94-1.51,11.23-3.05,17.02
			c-1.95,7.33-5.05,14.45-7.71,21.54c-1.21,3.21-2.03,6.51-3.26,9.69c-1.05,2.7-3.74,5.82-3.74,8.72c1.93,0.41,8.08-9.71,9.49-11.42
			c1.39-1.68,7.69-12.76,9.1-12.6c-0.31,1.12-3.58,7.09-4.68,9.72c-2.57,6.13-3.11,12.67-6.22,18.58
			c-5.86,11.11-12.9,19.97-20.14,30.21c0.75,0.7,15.89-14.32,18.27-15.69c2.5,3.51-13.83,19.45-16.44,22.72
			c-2.7,3.4-4.42,6.29-7.76,9.27c-2.64,2.36-11.59,7.62-11.81,10.67c8.63-6.07,17.99-12.17,26.04-19.21
			c1.11,1.35-24.17,21.72-26.95,24.06c-5.08,4.28-8.85,8.56-15.56,9.16c-3.6,0.32-6.63,1.46-10.11,2.08
			c-2.51,0.44-5.58-0.49-7.93,0.4c0.48,2.61,18.63,4.77,21.48,5.7C472.91,770.7,460.99,765.73,452.11,763.42z M539.61,682.69
			c1.4-7.49,4.42-14.53,7.58-21.41c1.95-4.23,3.56-7.94,4.48-12.53c0.52-2.59,0.46-8.61,2.54-10.13c0.17,0.63,0.26,1,0.29,1.2
			C558.17,655.72,549.85,671.22,539.61,682.69z M537.61,703.08c3.79-8.11,9.07-18.01,14.91-24.81
			C556.49,686.38,544.46,700.73,537.61,703.08z M778.49,788.4c-0.46-7.45-1.8-14.64-2.61-22.12c-5.23,6.5-4.43,18.14-7.5,25.71
			c-1.67,4.11-4.42,7.68-6.16,11.79c-1.51,3.57-2.6,7.79-5.27,10.71c0.32-5.84,3.73-17.03,4.76-20.72
			c-3.54,1.39-9.14,9.81-11.1,13.27c-3.25,5.72-5.42,12.12-8.57,17.89c-6.92,12.66-16.51,23.7-23.78,36.21
			c-6.92,11.9-22.48,29.64-28.98,68.04c2.85-0.55,10.19-21.01,13.16-25.39c6.97-10.28,14.33-20.43,21.42-30.7
			c2.55,1.65-0.51,14.19-2.45,20.09c1.97,0,6.41-8.72,7.36-10.48c2.63-4.89,4.54-10.15,6.98-15.13c3.99-8.15,8.84-16.89,14.12-24.27
			c-0.68,6.89-4.02,15-6.03,21.75c-1.99,6.68-4.31,12.11-8.46,17.78c-7.49,10.22-14.07,20.93-21.88,30.93
			c4.52-0.66,9.18-6.04,12.83-8.79c3.55-2.68,7.15-4.9,10.42-7.91c8.84-8.12,15.19-18.79,24.01-26.67
			c1.63,1.94-14.58,21.64-16.78,24.56c-6.16,8.18-13.22,16.11-19.88,23.86c-7.02,8.18-15.83,17.41-24.96,23.11
			c-10.79,6.73-20.58,14.42-28.42,24.52c0.99,0.88,9.39-6.04,10.95-6.99c5.03-3.03,11.09-5.38,16.91-5.99
			c-5.71,7.94-16.05,13.68-23.51,19.91c-7.36,6.14-14.56,12.22-21.59,18.74c-7.19,6.67-14.14,16.3-17.88,25.38
			c-1.08,2.62-10,25.24-7.65,25.94c2.48-6.06,8.01-10.2,12.23-14.99c6.24-7.08,11.36-12.38,19.6-17.39
			c0.24,0.69-5.81,9.01-6.81,10.43c-2.92,4.15-6.04,7.8-8.58,12.32c-2.21,3.94-4.46,7.84-6.41,11.91
			c-1.32,2.75-7.21,10.93-6.46,13.44c5.65-4.86,9.59-12.41,16.08-16.62c-1.19,7.11-9.12,15.56-13.15,21.37
			c-5.37,7.73-10.06,15.7-14.37,24.06c-0.87,0.02-3.71-24.5-4.12-26.93c-0.83-4.89-2.19-9.04-4.29-13.5
			c-1.12-2.37-4.19-14.18-6.16-17.91c0.54,5.61,1.25,13.76,0.35,16.83c-3.49-7.02-3.74-15.47-6.35-22.91
			c-1.32-3.76-3.19-7.18-4.63-10.87c-0.68-1.73-2.88-9.55-2.82-9.65c-1.72,2.63,0.18,13.25-0.04,17.06
			c-0.36,6.09,0.11,12.29,0.32,18.38c-3.29-2.6-4.07-15.36-5.39-19.61c-1.91-6.17-4.11-12.3-6.75-18.19
			c-1.6-3.57-18.04-37.08-19.92-36.23c-0.91,2.41,1.44,12.07,1.86,14.89c0.67,4.49,3.18,9.78,2.88,14.25
			c-5.89-6.07-9.92-13.99-15.53-20.41c-3.28-3.75-6.56-7.42-9.69-11.32c-4.63-5.75-8.33-12.31-12.95-18.15
			c-1.73-2.19-11.64-13.29-10.02-15.88c6.45,4.91,11,12.76,17.62,17.1c-0.74-4.56-4.25-9.4-5.8-13.89
			c-1.74-5.06-5.01-10.21-6.26-15.33c2.23-1.2,20.33,24.82,22.28,27.29c-0.05-6.34-5.46-11.69-6.49-17.68
			c2.49,0.19,8.88,10.16,10.67,12.25c3.69,4.31,6.98,9.37,10.2,14.06c-0.95-6.73-5.82-14.29-8.34-20.69
			c-2.6-6.6-5.48-12.22-10.18-17.61c-9.16-10.5-19.42-20.76-30.03-29.77c0.3,1.46,5.01,8.16,4.28,8c-2.99-0.65-6.06-8.52-7.22-10.66
			c-1.89-3.49-6-9-6.51-13.02c0.29,2.65,9.78,9.53,12.13,11.02c-0.14-1.46-2.29-3.48-1.42-4.89c7.81,5.2,14.04,13.21,22.42,17.91
			c-1.64-4.98-5.2-9.06-8.27-13.37c5.18,1.9,11.11,11.56,14.78,16.02c2.78,3.39,5.56,6.74,7.67,10.61c1.8,3.3,2.89,7.67,5.17,10.44
			c-3.52-12.66-7.07-24.97-13.87-36.35c-7.56-12.66-15.41-25.2-21.56-38.63c-1.28,0.17,1.41,9.98,1.36,11.79
			c-1.29,0.31-7.84-12.4-8.81-14.43c-1-2.09-0.78-5.23-3.17-5.43c-1.57-0.13-2.32,2.54-4.7,2.08c-3.35-0.66-7.74-9.9-9.32-12.64
			c-2.67-4.61-4.85-10.12-5.72-15.49c2.55,3.26,4.29,7.54,7.36,10.34c3.61,3.29,7.09,6.11,10.39,9.88c1.08-1.89-2.62-7.3-3.23-9.39
			c-1.17-4.03-2.5-7.81-3.87-11.79c-3.12-9.04-4.87-18.77-4.87-28.35c1.54,0.13,6.69,18.19,8.23,20.82
			c2.12,3.62,4.8,7.27,7.18,10.67c1.37,1.95,3.09,5.85,5.58,6.33c-2.88-4.07-4.37-9.42-5.23-14.26c-0.87-4.89-3.16-11.08-3.12-16.05
			c1.7,1.02,8.31,24.64,11.02,26.38c-0.28-4.03-1.65-8-0.93-12.07c2.6,2.64,3.27,11.07,4.32,14.69c1.22,4.19,2.53,8.42,4.38,12.38
			c3.22,6.92,9.18,12.57,11.74,19.67c1.16-0.13-0.97-13.03-1.11-14.68c1.8,1.34,3.74,5.4,5.37,7.12c2.31,2.43,4.65,5.07,6.4,7.95
			c1.83,3,3.2,6.28,4.7,9.45c1.16,2.44,2.43,9.83,5.2,11.05c-1-7.33-5.34-16.05-4.68-23.44c4.26,4.55,5.99,13.62,8.52,19.39
			c1.46,3.34,6.67,14.86,11.29,14.52c-1.16-2.76-1.63-4.87-1.91-7.86c6.55,4.69,9.86,13.98,14.58,20.37
			c1.91,2.58,3.79,5.7,5.07,8.65c0.94,2.18,0.97,7.52,2.91,8.9c-0.51-5.21,0.7-9.55-0.27-14.69c5.16,5.46,4.79,35.9,2.13,40.28
			c-2.8-16.54-7.51-34.66-20.72-46.28c0,2.09,3.44,7.73,4.21,9.91c1.21,3.44,2.89,7.57,2.74,11.22
			c-1.63,0.08-10.79-10.74-12.55-12.45c-4.22-4.09-8.02-12.36-13.1-15.23c1.26,7.58,7.33,13.84,10.23,20.86
			c2.84,6.87,5.48,14.12,7.34,21.32c1.72,6.67,1.79,13.25,2.77,20.01c0.83,5.74,2.84,10.85,4.36,16.42
			c0.66,0.01,1.36-15.7,2.02-17.11c1.31,8.82,1.64,17.89,2.89,26.8c1,7.12,3.64,19.07,8.59,24.51c-0.21-3.53-1.8-6.83-1.56-10.41
			c6.4,11.46,7.5,27.48,16.63,37.26c-1.57-6.45-5.06-12.41-6.42-19.06c-1.2-5.93-2.13-11.9-2.15-17.85
			c-0.02-7.47,1.11-14.8,1.46-22.28c0.23-4.9,0.3-10.62,1.77-15.34c2.5,3.28,3.27,12.71,3.99,16.88c1.05,6.03,1.07,12.48,1.7,18.59
			c0.94-0.06,3.65-13.87,4.05-15.45c1.14-4.47,2.49-7.26,4.74-11.25c4.67-8.29,6.78-18.05,11.28-26.69
			c-2.69-1.47-10.96,11.11-13.08,12.04c-1.75-4.87,0.37-13.42,0.18-18.72c-0.2-5.59-0.84-11.02-1.36-16.55
			c-0.57-6.1-2.22-12.09-3.33-18.1c-0.92-4.99-1.84-14.7-5.16-18.51c-0.59,6.53,1.07,13.75,1.12,20.36
			c0.04,5.78,1.12,13.58,0.07,19.14c-2.19-1.66-2.85-7.9-3.63-10.37c-1.32-4.21-2.68-8.38-4.42-12.45
			c-3.13-7.34-6.97-14.37-10.21-21.66c-3.57-8.04-6.9-16.2-10.35-24.29c-2.64-6.21-4.98-15.97-9.01-21.25
			c-1.96,4.65,0.74,13.04,1.45,17.94c0.59,4.06,1.44,8.35,2.36,12.38c0.73,3.19,3.72,8.18,3.19,11.27
			c-4.27-5.08-5.49-10.39-8.43-16.09c-3.22-6.26-7.33-12.02-9.7-18.68c-3.29-9.21-6.69-18.73-6.69-28.5
			c-2.77-0.38-0.56,12.43-1.39,13.36c-1.43-0.05-3.91-8.93-4.37-10.2c-1.42-3.96-1.69-6.89-1.54-11.08
			c0.34-9.53,1.38-18.93,1.81-28.45c-1.52-0.72-5.48,15.03-6.29,16.52c-1.46-1.89,1.08-12.44,1.44-15.18
			c0.27-2.05,3.1-14.73,4.08-19.35c-2.32-0.75-7.92,13.61-9.33,15.2c0-14.14,11.03-24.87,18.79-35.14
			c8.08-10.68,10.13-24.13,8.32-37.14c4.45,2.39,4.4,15.93,3.9,20.13c-0.93,7.86-3.83,15.16-6.53,22.54
			c-2.84,7.75-3.55,15-5.32,22.9c-0.78,3.48-0.83,6.83-1.37,10.32c-0.45,2.92-2.47,6.32-1.79,9.31c1.08,0.18,6.31-13.9,6.91-15.15
			c2.69-5.59,3.21-12.07,8.48-15.95c0.35,7.38-1.31,14.87-1.28,22.28c0.04,8.51,1.1,17.09,2.44,25.49
			c-3.7-0.91-11.63-11.83-15.6-9.32c7.4,8.45,12.34,17.84,17.15,28.05c5.06,10.74,12.06,19.75,19.78,28.68
			c-0.73-1.26-10.07-32.02-11.04-35.14c-4.23-13.65-5.01-30.16-0.77-44.09c1.43,5.66,1.98,9,2.14,14.74
			c0.13,4.95,0.87,10.25,2.13,15.02c1.18,4.5,1.98,9.33,3.52,13.71c1.26,3.58,2.81,11.22,5.52,13.58
			c-2.08-8.5-2.58-17.68-2.86-26.42c3.23,4.44,3.95,13.45,5.49,18.66c1.81,6.12,3.65,12.66,4.55,19c0.97,6.77,2.65,13.94,2.81,20.8
			c0.18,7.64-0.48,17.54-1.53,23.15c3.29-1.42,7.15-22.48,7.89-28.43c1.53-12.37-4.86-32.51-6.89-44.53
			c-2.28-13.56,0.8-26.74,3.08-39.97c1.11-6.46,2.41-12.75,3.96-19.16c0.71-2.95,5.38-20.45,5.01-23.06
			c-0.73,0.6-3.73,7.89-4.19,8.71c-0.89-0.71,0.47-13.9,0.8-16.08c0.73-4.88,1.62-7.67,0.8-16.08c-1.39,0.11-7.93,18.7-8.95,20.98
			c-2.14,4.78-3.84,13.41-7.5,17.05c-1.7-4.32-0.09-12.83,0.71-17.43c1.29-7.44,3.36-15.04,4-22.55c0.61-7.21,0.4-14.59-0.05-21.81
			c-0.2-3.12-0.46-6.23-0.63-9.34c-0.08-1.42-0.58-5-0.02-6.52c3.76,5.25,5.76,12.04,6.35,19.04c2.2-3.41,0.84-11.69,0.37-15.47
			c-0.5-4-0.92-7.87-2.12-11.71c-2.74-8.75-6.91-17.14-9.95-25.82c-6.06-17.24-11.97-32.46-14.26-50.87
			c-1.68-0.01-2.95,17.55-3.64,19.93c-2.93,0.3-2.63-26.07-2.29-29.53c1.01-10.5,0.62-20.84,3.03-31.13
			c-2.57,0.86-6.32,11.96-8.06,14.73c-1.87-3.81,1.92-10.75,3.07-14.52c1.45-4.76,2.77-9.58,3.42-14.52
			c0.34-2.55,0.18-29.5-2.07-29.55c-1.7,11.47-4.16,22.56-8.08,33.63c-2.04,5.77-4.34,11.5-6.78,17.12
			c-1.71,3.95-3.23,12.42-6.26,15.27c-1.61-3.67-0.29-8.42-3.13-11.52c-1.05,6.11-2.12,12.3-3.74,18.29
			c-1.29,4.75-2.85,13.04-6.77,16.16c-1.08-3.73,0.41-7.53-0.15-11.3c-8.16,12.9-13.83,32.32-26.85,41.68
			c0.97-3.64,2.52-15.73,2.62-22.58c-2.03,1.01-4.01,10.73-5.43,13.01c-2.04,3.27-5.99,13.11-8.99,14.47
			c0.38-5.38,2.98-10.12,2.83-15.61c-2.51,0.99-7.34,8.73-9.39,11.11c-4.05,4.72-6.05,10.88-10.3,15.47
			c-1.18-7.21,5.18-14.16,7-20.87c1.25-4.6,2.28-9.26,3.32-13.91c0.66-2.98,0.61-8.35,2.53-10.59c1.38,2.66,2.98,5.28,3.94,8.14
			c0.61,1.83,0.4,5.74,2.03,7.04c0-28.08-1.27-56.92,5.7-84.41c-2.12,0.89-4.26,7.31-5.34,9.04c-2.05,3.28-4.17,6.57-5.34,10.35
			c-2.3,7.39-2.65,15.17-4.39,22.53c-3.07-5.28-3.1-12.05-4.36-18.01c-2.52,2.58-0.46,11.93-0.37,15.22
			c0.14,4.81-0.67,9.63-0.36,14.43c0.32,5,0.66,9.2-0.31,14.19c-0.77,3.98-0.76,11.03-3.23,14.34c-0.98-4.18,0.25-8.9,0.52-13.1
			c0.34-5.41-0.46-10.68-1.21-16.01c-2.17,2.59-2.39,9.14-3.41,12.44c-1.15,3.73-2.31,7.41-3.22,11.22
			c-1.93,8.07-3.47,15.91-7.9,23.09c1.08-11.24,2.93-22.73,6.32-33.52c-2.75,1.64-3.53,6.72-4.78,9.45
			c-1.52,3.34-3.18,6.63-4.81,9.91c-2.75,5.54-4.63,11.51-8.78,16.14c-1.53-0.35,16.62-52.28,19.18-58.03
			c-0.74-0.78-18.79,26.46-20.5,30.05c-1.77-3.56,4.82-15.96,6.26-19.44c2.78-6.74,5.42-13.96,9.35-20.13
			c7.99-12.52,17.34-24.98,26.97-36.32c-0.82,6.35-4.56,12.77-7.37,18.4c3-1.62,4.79-6.16,6.83-8.75c1.95-2.47,4.2-4.54,5.99-7.17
			c3.8-5.57,7.03-12.59,8.56-19.14c1.74-7.43,2.5-14.99,3.75-22.5c0.58-3.51,0.88-7.58,1.89-10.99c0.99-3.33,1.88-4.03,2.67-7.62
			c0.78,0.05-1.17,21.51-1.56,23.99c4.53-1.65,6.58-15.35,7.67-19.58c1.91-7.4,0.93-15.92,3.15-22.96
			c3.14,12.22,10.41,24,17.79,34.14c-0.04-3.03-2.39-6.91-3.44-9.8c-1.48-4.09-3.13-8.1-4.54-12.24
			c4.18,3.54,6.88,11.01,10.11,15.56c3.35,4.72,8.1,8.21,11.36,12.85c0.09-2.69-2.84-6.16-3.95-8.65
			c-1.76-3.97-3.85-7.64-5.85-11.49c-3.15-6.06-5.92-12.43-7.93-18.96c-2.48-8.04-3.3-15.96-2.96-24.36
			c0.23-5.71-1.53-13.43,0.34-18.92c-3.54,3.93-5.64,11.87-5.87,13.35c-1.28-4.51,0.12-9.78,1.08-14.26
			c0.95-4.44,0.99-8.53,1.65-12.94c0.89-5.93,2.8-12.09,4.3-17.91c1.24-4.82,4.08-10.49,3.57-15.56c4.59-0.13,2.82,13.6,9.58,15.51
			c6.97,1.97,14.7-6.51,21.79-6.96c7.88-0.49,16.27,4.83,22.39,9.36c3.46,2.56,6.36,4.78,8.8,8.31c1.84,2.66,6.03,7.77,5.75,11.19
			c-3.49-2.65-5.4-7.47-8.69-10.51c-3.68-3.4-8.01-5.64-11.97-8.63c-0.4,2.14,4.5,6.07,5.53,7.93c2.76,4.99,4.74,10.92,6.59,16.32
			c3.51,10.24,5.24,21.04,8.69,31.34c3,8.97,5.31,18.9,9.36,27.38c1.84,3.85,3.86,8.09,6.85,11.21c2,2.08,8.16,7.93,11.28,6.28
			c-2.5-2-3.72-3.75-5.35-6.53c4.11-1.02,11.2,2.69,15.87,2.39c4.9-0.31,6.61-0.84,10.03-4.27c6.35-6.37,12.09-14.46,15.87-22.72
			c3.41-7.47,8.82-15.58,14.48-21.66c3.25-3.5,5.93-5.83,10.89-5.49c3.41,0.23,11.35,3.02,12.82,6.78
			c-3.21-0.86-7.76-3.44-10.86-3.28c0.9,0.44,1.74,1.1,2.46,1.83c0.42,0.27,0.9,0.59,1.51,0.98c1.91,1.23,3.71,2.53,5.49,3.92
			c5.2,4.05,10.4,8.1,15.64,12.1c10.25,7.81,12.63,15.99,14.93,28.44c-0.25,0.08-9.05-14.74-10.56-16.51
			c0,7.43,4.33,16.29,6.04,23.57c2.03,8.61,2.5,17.21,2.35,26.04c-0.41-1.9-14.91-32.11-19.08-35.24c-0.2,3.32,1.84,6.9,2.44,10.19
			c0.7,3.9,0.55,7.94,0.42,11.89c-0.16,4.85-0.38,9.65-0.41,14.5c-0.01,1.87,0.96,7.12-0.6,8.47c-1.96-6.22-2.11-16.58-7.12-21.16
			c-0.94,4.13,0.89,10.21,0.97,14.59c0.1,5.68,0.1,11.34,0.41,17.01c0.61,11.11,0.88,22.02,0.24,33.14
			c-3.44-2.14-4.85-15.29-6.41-19.29c-2.41-6.18-3.17-12.24-5.06-18.52c-2.51,3.94,0.64,10.65-1.63,14.98
			c-3.22-3.85-2.36-14.86-2.65-19.62c-0.47-7.73-0.02-15.12-0.02-22.81c-2.85,6.53-2.67,14.65-3.27,21.6
			c-0.52,6.16-1.6,12.41-1.63,18.6c-0.08,14.67,5.93,30.42,9.43,44.51c-2.46,0.94-9.02-11.86-9.99-14.15
			c-2.97-7.03-3.86-14.95-6.89-21.84c-2.58,11.01,1.19,23.69,0.22,34.99c-0.98,11.35-3.12,22.31-3.24,33.75
			c-3.71-0.94-6.93-11.65-8.25-15.28c-2-5.49-5.78-18.49-7.35-19.72c-3.91,11.64-0.49,25.62,1.21,37.38
			c0.84,5.83,1.68,11.47,2.89,17.22c0.99,4.72,2.75,11.75,1.87,16.37c-3.42-0.35-9.57-16.51-11.18-19.87
			c-3.62-7.54-4.85-15.43-5.9-23.65c-1.91-14.9-4.78-29.64-5.52-44.61c-2.44,6.25-2.4,13.98-2.72,20.58
			c-0.48,10.12-0.15,19.87-0.01,29.97c-7.65-7.69-11.03-20.31-17.94-28.83c2.24,11.75,7.56,24.76,11.96,35.91
			c3.76,9.52,5.96,21.42,6.84,31.59c-5.03-2.48-9.43-9.35-11.94-14.25c-1.74-3.39-4.77-16.93-8.01-17.96
			c-2.58,2.31-0.07,10.79,0.33,13.59c0.81,5.68,1.44,11.38,2.01,17.09c-11.33-17.57-6.8-35.94-6.8-55.38
			c-1.11,0.32-2.63,6.96-3.34,8.47c-1.44,3.06-2.43,5.99-3.41,9.22c-2.65,8.72-2.09,16.94-0.66,25.9c-5.6-3.78-6.34-12.2-9.57-17.58
			c-2.17,2.3,0.03,11.43,0.8,14.28c1.39,5.18,3.65,9.96,6.27,14.61c3.85,6.81,8.72,13.68,13.54,19.68
			c5.25,6.54,10.07,13.81,14.71,20.8c2.72,4.1,5.56,8.15,8.05,12.39c1.21,2.08,5.38,7.7,4.82,9.85c-1.8,0.24-7.85-9.45-8.97-10.9
			c-3.34-4.34-7-8.4-10.46-12.65c-6.46-7.93-12.99-15.4-20.38-22.46c0.96,7.34,7.29,16.25,11.22,22.42c4.16,6.52,8.63,13,12.36,19.7
			c6.79,12.2,17.73,26.5,19.22,40.8c-6.21-7.19-12.46-14.02-19.76-20.15c4.02,13.2,6.83,15.22,8.81,18.75
			c3.89,6.92,7.89,13.78,11.52,20.84c3.83,7.46,6.96,15.19,10.54,22.74c2.43,5.11,5.67,15.25,10.46,18.65
			c1.03-0.05-2.11-19.63-2.09-21.67c0.05-7.58,1.27-15.07,0.8-22.69c-0.92-14.92-4.97-29.01-10.23-42.75
			c2.01-3.05,15.47,9.98,16.91,11.18c1.22-1.71-3.36-8.37-3.95-10.42c-0.98-3.45-1.86-6.42-3.2-9.75
			c-2.83-7.02-6.87-15.65-7.81-23.23c8.99,9.42,15.13,25,19.47,37.11c4.63,12.92,8.84,29.87,8.03,43.65
			c-4.38-6.82-5.73-15.89-9.71-23.04c-1.34-2.4-8.66-16.53-11.37-16.91c-0.85,1.77,5.46,16.22,6.4,19.12
			c1.98,6.11,2.69,11.97,3.91,18.17c1.4,7.14,3.58,13.86,4.32,21.18c0.66,6.5,0.61,12.97,1.71,19.4c2.48,14.6,2.31,29.25,1.7,43.95
			c-0.69,16.56-5.18,32.02-7.49,48.2c5.68-6.46,10.48-14.58,14.22-22.29c2.11-4.36,3.77-9.15,4.86-13.87
			c0.8-3.5,0.06-12.46,2.7-14.58c0.46,2.82,1.46,5.47,0.93,8.38c6.42-7.67,5.73-19.92,7.01-29.34c1.68,2.87,0.64,8.86,0.8,12.15
			c0.21,4.4-0.12,8.81,0.11,13.19c2.89,0.31,7.41-35.34,7.64-39.04c0.5-7.85,0.01-15.74,1.61-23.56c1.57-7.68,4.52-14.96,7.51-22.19
			c3.29,14.95-6.8,30.16-2.6,44.83c3.99-11.51,9.6-14.42,13.89-21.83c1.53,1.36-4.75,15.6-5.45,18.18
			c-1.79,6.68-3.66,12.16-6.42,18.5c-0.92,2.13-12.95,28.06-12.96,28.05c1.83,1.4,13.45-11.4,14.94-12.82
			c5.22-4.96,10.26-12.61,14.44-18.77c4.06-5.99,7.59-12.46,10.36-19.14c3.37-8.14,5.36-16.86,8.72-24.92
			c3.03,0.35,4.84,14.46,5.37,17.03C781.25,772.78,782.43,782.55,778.49,788.4z M559.8,590.45c-0.65-6.15,0.08-11.93-0.35-18
			c2.17,1.12,2.39,11.41,3.17,13.88c1.51,4.83,3.22,10.19,5.15,14.8c4.3,10.31,10.1,18.86,12.93,30c-0.88,0.12-7.75-11-8.62-11.17
			c-0.84,3.34,9.87,21.35,10.97,24.54c1.45,4.19,2.01,8.14,2.01,12.63c-2.84-5.32-4.53-10.77-7.75-15.94
			c-3.24-5.19-7.18-10.04-10.48-15.22c-5.47-8.59-12-22.36-11.29-32.69c0.2,0.99,7.18,14.71,8.6,16.04
			C564.41,603.83,560.42,596.38,559.8,590.45z M580.44,691.34c0.45-5.43,0.33-11.59-0.4-17.01c-0.57-4.24-3.23-7.58-3.96-11.54
			c3.59-1.91,8.87,8.7,9.67,10.92c2.02,5.58,2.62,11.94,2.64,17.82c0.02,4.95-0.88,8.88-2.72,13.39c-1.22,2.99-2.59,5.46-3.31,8.75
			c-0.57,2.61-0.41,5.76-2.02,7.95C580.78,711.4,579.6,701.55,580.44,691.34z M698.15,611.57c-4.2-7.23-3.47-21.36-3.09-29.56
			c0.46-10.09,1.5-21.58,3.62-31.47C705.62,569.22,699.98,592.43,698.15,611.57z"/>
	</g>
</g>
</svg>
